# xmcd
#
# Track frame offsets:
#	150
#	16732
#	34005
#	51620
#	66525
#	83712
#	103267
#	122380
#	136987
#	154442
#	169010
#	182812
#
# Disc length: 2684 seconds
#
# Revision: 1
# Processed by: cddbd v1.5.1PL0 Copyright (c) Steve Scherf et al.
# Submitted via: CDex 1.50Beta5
#
DISCID=a40a7a0c
DTITLE=麻生よう子 - 午前零時の鐘/逃避行
DYEAR=1994
DGENRE=Pop
TTITLE0=午前零時の鐘
TTITLE1=逃避行
TTITLE2=引越し
TTITLE3=陽だまり
TTITLE4=月立ちぬ
TTITLE5=置き手紙
TTITLE6=裸の街
TTITLE7=ウイークエンドの公園通り
TTITLE8=夢判断
TTITLE9=まごころ
TTITLE10=ひとりぐらし
TTITLE11=春の坂道
EXTD=
EXTT0=
EXTT1=
EXTT2=
EXTT3=
EXTT4=
EXTT5=
EXTT6=
EXTT7=
EXTT8=
EXTT9=
EXTT10=
EXTT11=
PLAYORDER=
